<svg xmlns="http://www.w3.org/2000/svg" version="1.1" xmlns:xlink="http://www.w3.org/1999/xlink" xmlns:svgjs="http://svgjs.dev/svgjs" viewBox="0 0 800 800" opacity="0.42"><g fill="none" stroke-width="7.25" stroke="hsl(0, 100%, 38%)" stroke-linecap="square" stroke-dasharray="16.5 53.5" transform="matrix(1.1,0,0,1.1,-40.00000000000006,-40.00000152587893)"><line x1="471" y1="400" x2="329" y2="400" transform="rotate(0, 400, 400)" opacity="0.40"></line><line x1="301.5" y1="400" x2="498.5" y2="400" transform="rotate(4, 400, 400)" opacity="0.59"></line><line x1="194" y1="400" x2="606" y2="400" transform="rotate(8, 400, 400)" opacity="0.20"></line><line x1="632" y1="400" x2="168" y2="400" transform="rotate(12, 400, 400)" opacity="0.25"></line><line x1="661.5" y1="400" x2="138.5" y2="400" transform="rotate(16, 400, 400)" opacity="0.72"></line><line x1="351" y1="400" x2="449" y2="400" transform="rotate(20, 400, 400)" opacity="0.41"></line><line x1="573.5" y1="400" x2="226.5" y2="400" transform="rotate(24, 400, 400)" opacity="0.88"></line><line x1="631" y1="400" x2="169" y2="400" transform="rotate(28, 400, 400)" opacity="0.79"></line><line x1="277" y1="400" x2="523" y2="400" transform="rotate(32, 400, 400)" opacity="0.51"></line><line x1="556" y1="400" x2="244" y2="400" transform="rotate(36, 400, 400)" opacity="0.98"></line><line x1="628" y1="400" x2="172" y2="400" transform="rotate(40, 400, 400)" opacity="0.47"></line><line x1="197.5" y1="400" x2="602.5" y2="400" transform="rotate(44, 400, 400)" opacity="0.90"></line><line x1="454" y1="400" x2="346" y2="400" transform="rotate(48, 400, 400)" opacity="0.57"></line><line x1="614.5" y1="400" x2="185.5" y2="400" transform="rotate(52, 400, 400)" opacity="0.53"></line><line x1="440" y1="400" x2="360" y2="400" transform="rotate(56, 400, 400)" opacity="0.87"></line><line x1="265.5" y1="400" x2="534.5" y2="400" transform="rotate(60, 400, 400)" opacity="0.12"></line><line x1="319.5" y1="400" x2="480.5" y2="400" transform="rotate(64, 400, 400)" opacity="0.39"></line><line x1="235.5" y1="400" x2="564.5" y2="400" transform="rotate(68, 400, 400)" opacity="0.82"></line><line x1="551.5" y1="400" x2="248.5" y2="400" transform="rotate(72, 400, 400)" opacity="0.65"></line><line x1="434" y1="400" x2="366" y2="400" transform="rotate(76, 400, 400)" opacity="0.59"></line><line x1="466.5" y1="400" x2="333.5" y2="400" transform="rotate(80, 400, 400)" opacity="0.22"></line><line x1="578.5" y1="400" x2="221.5" y2="400" transform="rotate(84, 400, 400)" opacity="0.46"></line><line x1="697" y1="400" x2="103" y2="400" transform="rotate(88, 400, 400)" opacity="0.29"></line><line x1="259.5" y1="400" x2="540.5" y2="400" transform="rotate(92, 400, 400)" opacity="0.93"></line><line x1="238" y1="400" x2="562" y2="400" transform="rotate(96, 400, 400)" opacity="0.60"></line><line x1="467" y1="400" x2="333" y2="400" transform="rotate(100, 400, 400)" opacity="0.87"></line><line x1="531" y1="400" x2="269" y2="400" transform="rotate(104, 400, 400)" opacity="0.19"></line><line x1="668.5" y1="400" x2="131.5" y2="400" transform="rotate(108, 400, 400)" opacity="0.90"></line><line x1="396.5" y1="400" x2="403.5" y2="400" transform="rotate(112, 400, 400)" opacity="0.08"></line><line x1="474" y1="400" x2="326" y2="400" transform="rotate(116, 400, 400)" opacity="0.79"></line><line x1="672.5" y1="400" x2="127.5" y2="400" transform="rotate(120, 400, 400)" opacity="0.59"></line><line x1="473" y1="400" x2="327" y2="400" transform="rotate(124, 400, 400)" opacity="0.08"></line><line x1="587" y1="400" x2="213" y2="400" transform="rotate(128, 400, 400)" opacity="0.39"></line><line x1="560.5" y1="400" x2="239.5" y2="400" transform="rotate(132, 400, 400)" opacity="0.92"></line><line x1="589.5" y1="400" x2="210.5" y2="400" transform="rotate(136, 400, 400)" opacity="0.81"></line><line x1="195.5" y1="400" x2="604.5" y2="400" transform="rotate(140, 400, 400)" opacity="0.61"></line><line x1="418" y1="400" x2="382" y2="400" transform="rotate(144, 400, 400)" opacity="0.89"></line><line x1="376.5" y1="400" x2="423.5" y2="400" transform="rotate(148, 400, 400)" opacity="0.51"></line><line x1="513.5" y1="400" x2="286.5" y2="400" transform="rotate(152, 400, 400)" opacity="0.37"></line><line x1="343.5" y1="400" x2="456.5" y2="400" transform="rotate(156, 400, 400)" opacity="0.08"></line><line x1="686" y1="400" x2="114" y2="400" transform="rotate(160, 400, 400)" opacity="0.30"></line><line x1="326" y1="400" x2="474" y2="400" transform="rotate(164, 400, 400)" opacity="0.35"></line><line x1="310" y1="400" x2="490" y2="400" transform="rotate(168, 400, 400)" opacity="0.23"></line><line x1="364.5" y1="400" x2="435.5" y2="400" transform="rotate(172, 400, 400)" opacity="0.13"></line><line x1="431" y1="400" x2="369" y2="400" transform="rotate(176, 400, 400)" opacity="0.57"></line><line x1="724.5" y1="400" x2="75.5" y2="400" transform="rotate(180, 400, 400)" opacity="0.58"></line><line x1="364.5" y1="400" x2="435.5" y2="400" transform="rotate(184, 400, 400)" opacity="0.14"></line><line x1="695.5" y1="400" x2="104.5" y2="400" transform="rotate(188, 400, 400)" opacity="0.22"></line><line x1="388.5" y1="400" x2="411.5" y2="400" transform="rotate(192, 400, 400)" opacity="0.39"></line><line x1="604" y1="400" x2="196" y2="400" transform="rotate(196, 400, 400)" opacity="0.96"></line><line x1="368.5" y1="400" x2="431.5" y2="400" transform="rotate(200, 400, 400)" opacity="0.61"></line><line x1="409.5" y1="400" x2="390.5" y2="400" transform="rotate(204, 400, 400)" opacity="0.38"></line><line x1="413" y1="400" x2="387" y2="400" transform="rotate(208, 400, 400)" opacity="0.27"></line><line x1="476.5" y1="400" x2="323.5" y2="400" transform="rotate(212, 400, 400)" opacity="0.92"></line><line x1="306" y1="400" x2="494" y2="400" transform="rotate(216, 400, 400)" opacity="0.79"></line><line x1="320.5" y1="400" x2="479.5" y2="400" transform="rotate(220, 400, 400)" opacity="0.11"></line><line x1="526.5" y1="400" x2="273.5" y2="400" transform="rotate(224, 400, 400)" opacity="0.70"></line><line x1="411.5" y1="400" x2="388.5" y2="400" transform="rotate(228, 400, 400)" opacity="0.99"></line><line x1="465" y1="400" x2="335" y2="400" transform="rotate(232, 400, 400)" opacity="0.64"></line><line x1="690" y1="400" x2="110" y2="400" transform="rotate(236, 400, 400)" opacity="0.13"></line><line x1="318" y1="400" x2="482" y2="400" transform="rotate(240, 400, 400)" opacity="0.96"></line><line x1="644" y1="400" x2="156" y2="400" transform="rotate(244, 400, 400)" opacity="0.44"></line><line x1="420" y1="400" x2="380" y2="400" transform="rotate(248, 400, 400)" opacity="0.23"></line><line x1="432.5" y1="400" x2="367.5" y2="400" transform="rotate(252, 400, 400)" opacity="0.23"></line><line x1="322.5" y1="400" x2="477.5" y2="400" transform="rotate(256, 400, 400)" opacity="0.65"></line><line x1="374" y1="400" x2="426" y2="400" transform="rotate(260, 400, 400)" opacity="0.36"></line><line x1="635" y1="400" x2="165" y2="400" transform="rotate(264, 400, 400)" opacity="0.24"></line><line x1="462" y1="400" x2="338" y2="400" transform="rotate(268, 400, 400)" opacity="0.45"></line><line x1="404.5" y1="400" x2="395.5" y2="400" transform="rotate(272, 400, 400)" opacity="0.73"></line><line x1="460" y1="400" x2="340" y2="400" transform="rotate(276, 400, 400)" opacity="0.10"></line><line x1="379" y1="400" x2="421" y2="400" transform="rotate(280, 400, 400)" opacity="0.53"></line><line x1="483" y1="400" x2="317" y2="400" transform="rotate(284, 400, 400)" opacity="0.75"></line><line x1="389" y1="400" x2="411" y2="400" transform="rotate(288, 400, 400)" opacity="0.95"></line><line x1="374.5" y1="400" x2="425.5" y2="400" transform="rotate(292, 400, 400)" opacity="1.00"></line><line x1="502" y1="400" x2="298" y2="400" transform="rotate(296, 400, 400)" opacity="0.92"></line><line x1="601.5" y1="400" x2="198.5" y2="400" transform="rotate(300, 400, 400)" opacity="0.34"></line><line x1="345.5" y1="400" x2="454.5" y2="400" transform="rotate(304, 400, 400)" opacity="0.34"></line><line x1="325.5" y1="400" x2="474.5" y2="400" transform="rotate(308, 400, 400)" opacity="0.68"></line><line x1="710.5" y1="400" x2="89.5" y2="400" transform="rotate(312, 400, 400)" opacity="0.17"></line><line x1="512.5" y1="400" x2="287.5" y2="400" transform="rotate(316, 400, 400)" opacity="0.31"></line><line x1="228" y1="400" x2="572" y2="400" transform="rotate(320, 400, 400)" opacity="0.89"></line></g></svg>